<svg version="1" xmlns="http://www.w3.org/2000/svg" width="300" height="300" viewBox="0 0 225.000000 225.000000"><path d="M80 22.1c-9.3 1.6-24.6 7.4-33.2 12.5C35.7 41.2 21 55.8 14.2 67 3.3 84.7-.5 99.8.3 120.9c.7 16.9 2.9 25.9 10.2 40.6 9.5 19.1 22.6 32.1 39 38.7 7 2.9 9.2 3.3 17.5 3.3 8.2 0 10.3-.4 15.2-2.7 10.8-5 19.2-15.1 23.3-27.7 1.4-4.2 1.6-7.4 1.2-14-.3-5.5-.1-9.9.6-12.1 2-5.7 9.6-9.5 14.9-7.5 1.1.4.2 3-3.7 11-9.7 19.6-11.8 30.3-7 35 3 3.1 7.2 3.2 12.8.4 5.1-2.6 21.7-19.3 30.6-30.6 5-6.4 7.6-8.8 11.7-10.8 6.7-3.3 15.4-11.1 18.8-16.9 2.8-4.9 5.6-14.3 5.6-19.1 0-2.2 2.3-7.1 7.2-15.1 6.2-10.3 7.9-12.4 12.2-14.9 6.3-3.8 11.1-10 13.2-17.3 2.1-7.1 1.5-22.3-1.2-30.2-2.4-7-4.8-7.6-9.8-2.7-2.3 2.4-6.6 4.7-13.1 7.2-5.3 2.1-11.8 5.2-14.3 7-5.6 3.8-10.3 10.8-10.5 15.8l-.2 3.6-2.4-3.2c-4.4-5.8-15.5-16.2-21.9-20.6-8.8-5.9-21.2-11.7-30.7-14.2-9.2-2.4-30.5-3.4-39.5-1.8zm10.4 27C100.5 57 95.6 72 82.9 72c-11.7 0-17.1-14.2-8.3-21.9 2.8-2.6 4.3-3.1 8.3-3.1 3.4 0 5.6.6 7.5 2.1zm48.3 10.6c5 2.3 8 9.1 6.4 14.4-1.2 4.1-5.8 8.5-9.9 9.6-4 1-10.3-1.7-12.9-5.6-4.2-6.2-2.6-13.6 3.6-17.8 4-2.7 8-2.9 12.8-.6zm48.6 18.1l4.4 2.8-8.1 12.9c-17.4 27.6-36.9 53.6-51.4 68.5l-9.2 9.5 2.1-5.5c2.5-6.8 11.8-24.5 19.3-36.8C156.7 108.9 180.2 75 182 75c.5 0 2.9 1.3 5.3 2.8zm-137.2.5c2.2 1.4 3.9 3.8 4.8 6.4 1.3 3.6 1.3 4.5-.3 8.6-1.4 3.7-2.5 5-6.2 6.8-4.1 1.9-5 2-8.6 1-7.7-2.4-11.4-9.5-8.6-16.9 2.8-7.6 12.1-10.5 18.9-5.9zm-3.3 49.1c5.7 3.1 7.9 11.8 4.5 17.6-2.5 4.3-7.1 6.4-12.7 5.8-15.7-1.8-14.5-24.9 1.2-24.8 2.6.1 5.7.6 7 1.4z"/></svg>